<svg width="416" height="109" viewBox="0 0 416 109" fill="none" xmlns="http://www.w3.org/2000/svg">
<path d="M372 12.7144L348 21V8.28561L372 0V12.7144Z" fill="#EF7792"/>
<path d="M67.612 27.1661V97.4627H88.6131V89.115H77.9807V65.8293H87.4708V57.5694H77.9807V35.5139H88.6131V27.1661H67.612Z" fill="white"/>
<path d="M90.9595 74.3527V84.0185C90.9595 92.8056 95.1773 98.0778 103.261 98.0778C111.346 98.0778 116.091 92.6299 116.091 83.9306C116.091 74.9678 112.136 66.4444 108.182 59.4147L106.073 55.8999C102.646 49.7489 100.45 44.1252 100.45 38.7651C100.45 34.9866 101.68 33.6686 103.525 33.6686C105.282 33.6686 106.249 34.9866 106.249 37.1834V40.9618C106.249 43.8616 106.337 46.7613 106.952 49.3974H115.651V40.2589C115.651 31.8233 111.346 26.551 103.349 26.551C95.2652 26.551 90.5202 31.999 90.5202 40.5225C90.5202 48.9581 93.8593 54.9333 97.8135 62.0508L99.8345 65.5657C103.525 72.5953 106.073 79.9765 106.073 85.8638C106.073 89.6422 104.843 90.9603 102.998 90.9603C101.328 90.9603 100.362 89.6422 100.362 87.4455V82.7883C100.362 79.8886 100.274 76.9889 99.6587 74.3527H90.9595Z" fill="white"/>
<path d="M118.265 97.4627H141.199V89.115H129.249L141.463 33.8443V27.1661H118.529V35.5139H130.479L118.265 90.7846V97.4627Z" fill="white"/>
<path d="M143.575 27.1661V35.5139H151.044V97.4627H161.413V35.5139H168.882V27.1661H143.575Z" fill="white"/>
<path d="M171.727 27.1661V97.4627H192.728V89.115H182.096V65.8293H191.586V57.5694H182.096V35.5139H192.728V27.1661H171.727Z" fill="white"/>
<path d="M195.797 27.1661V97.4627H205.99V68.3775C208.802 68.3775 209.944 70.3107 210.12 74.2649L210.559 87.9727C210.647 92.1026 210.999 95.0902 211.877 97.4627H221.807V96.584C220.752 94.4751 220.401 91.5754 220.225 86.4789L219.961 78.0433C219.786 70.6622 218.643 67.3231 214.162 64.7748V63.8961C219.171 60.7328 221.982 55.0212 221.982 46.4098V46.0583C221.982 33.3171 215.216 27.1661 205.99 27.1661H195.797ZM205.99 34.2837H206.693C209.593 34.2837 211.438 36.6562 211.438 43.598V51.8578C211.438 58.7996 209.593 61.26 206.693 61.26H205.99V34.2837Z" fill="white"/>
<path d="M234.781 97.4627H244.974L244.71 70.8379H245.589L251.916 97.4627H261.669V96.584L253.41 62.7538V61.8751L261.669 28.0448V27.1661H252.267L245.589 55.0212H244.71L244.974 27.1661H234.781V97.4627Z" fill="white"/>
<path d="M269.679 27.1661L263.089 96.584V97.4627H272.228L273.458 80.0643H279.082L280.224 97.4627H290.329V96.584L283.739 27.1661H269.679ZM273.897 71.6287L275.83 45.0918H276.709L278.554 71.6287H273.897Z" fill="white"/>
<path d="M293.021 27.1661V97.4627H302.599L301.457 56.515H302.335L309.453 97.4627H319.031V27.1661H309.453L310.595 68.026H309.717L302.599 27.1661H293.021Z" fill="white"/>
<path d="M340.43 27.1661L336.3 52.1214H335.421L331.291 27.1661H321.45V28.0448L330.149 68.9926V97.4627H340.518V68.9926L349.217 28.0448V27.1661H340.43Z" fill="white"/>
<path d="M353.311 27.1661L346.721 96.584V97.4627H355.859L357.09 80.0643H362.713L363.856 97.4627H373.961V96.584L367.37 27.1661H353.311ZM357.529 71.6287L359.462 45.0918H360.341L362.186 71.6287H357.529Z" fill="white"/>
<path d="M376.653 27.1661V97.4627H386.846V68.3775C389.658 68.3775 390.8 70.3107 390.976 74.2649L391.415 87.9727C391.503 92.1026 391.854 95.0902 392.733 97.4627H402.663V96.584C401.608 94.4751 401.257 91.5754 401.081 86.4789L400.817 78.0433C400.642 70.6622 399.499 67.3231 395.018 64.7748V63.8961C400.026 60.7328 402.838 55.0212 402.838 46.4098V46.0583C402.838 33.3171 396.072 27.1661 386.846 27.1661H376.653ZM386.846 34.2837H387.549C390.448 34.2837 392.294 36.6562 392.294 43.598V51.8578C392.294 58.7996 390.448 61.26 387.549 61.26H386.846V34.2837Z" fill="white"/>
<path d="M405.631 27.1661V97.4627H416V27.1661H405.631Z" fill="white"/>
<path d="M13.5 27.7212H23.4655L20.2898 44.1444H21.1668C22.2563 42.5765 24.1697 41.2611 27.1461 41.2611C32.647 41.2611 35.3444 46.3235 33.4443 56.2093L28.2356 83.1295C26.3223 93.002 21.685 98.0778 16.1707 98.0778C12.4104 98.0778 10.9621 96.0714 10.6166 93.7993H9.73963L8.03885 97.6393H0L13.5 27.7212ZM11.9985 87.0626C11.5201 89.5074 12.2244 90.9026 13.965 90.9026C15.7189 90.9026 16.9414 89.5074 17.4197 87.0626L24.2494 51.6651C24.7012 49.2999 24.0103 47.9047 22.2696 47.9047C20.529 47.9047 19.2932 49.2999 18.8415 51.6651L11.9985 87.0626Z" fill="#EF7792"/>
<path d="M61.6533 41.6996L61.4806 42.5765L41.3236 109H33.3778L33.5505 108.123L37.7095 94.756H32.9925L37.2976 42.5765L37.4703 41.6996H47.1701L42.4663 79.1965H43.3433L53.0298 41.6996H61.6533Z" fill="#EF7792"/>
</svg>
