<svg width="21" height="13" viewBox="0 0 21 13" fill="none" xmlns="http://www.w3.org/2000/svg">
<path fill-rule="evenodd" clip-rule="evenodd" d="M1 0C0.447715 0 0 0.447715 0 1V12C0 12.5523 0.447715 13 1 13H20C20.5523 13 21 12.5523 21 12V1C21 0.447715 20.5523 0 20 0H1ZM6.26434 10H4.94434V3H6.26434V5.89H8.86434V3H10.1843V10H8.86434V7.09H6.26434V10ZM17.0968 7.54C17.0968 9.14 16.0768 10.14 14.3568 10.14C12.6368 10.14 11.6168 9.14 11.6168 7.54V3H12.9368V7.58C12.9368 8.44 13.4368 8.96 14.3568 8.96C15.2768 8.96 15.7768 8.44 15.7768 7.58V3H17.0968V7.54Z" fill="#24688D"/>
</svg>
